<svg width="33" height="33" viewBox="0 0 33 33" fill="none" xmlns="http://www.w3.org/2000/svg">
<path d="M33 14.4846C33 15.8235 31.9157 16.9172 30.5674 16.9172H30.1714V27.562C30.1714 30.1643 28.0594 32.2763 25.4571 32.2763H7.54286C4.94057 32.2763 2.82857 30.1643 2.82857 27.562V16.9172H2.43257C1.09371 16.9172 0 15.8329 0 14.4846C0 13.8057 0.282857 13.1552 0.792 12.6932L13.3226 1.2375C15.1234 -0.412499 17.886 -0.412499 19.6869 1.2375L32.2174 12.6932C32.7171 13.1457 33 13.8057 33 14.4846Z" fill="#BEA1F6"/>
<path d="M17.0043 18.1555C18.953 18.1555 20.5346 19.8199 20.5346 21.8706L20.5346 27.2505C20.5346 28.3551 19.6391 29.2505 18.5346 29.2505H15.4741C14.3696 29.2505 13.4741 28.3551 13.4741 27.2505L13.4741 21.8706C13.4741 19.8199 15.0557 18.1555 17.0043 18.1555Z" fill="#613CB0"/>
</svg>
