<svg width="337" height="36" viewBox="0 0 337 36" fill="none" xmlns="http://www.w3.org/2000/svg">
<g clip-path="url(#clip0_152_410)">
<path d="M12.36 35.65C10.59 35.65 8.95 35.32 7.44 34.65C5.93 33.98 4.63 33.07 3.52 31.92C2.41 30.77 1.55 29.39 0.93 27.81C0.31 26.22 0 24.51 0 22.66C0 20.81 0.31 19.09 0.93 17.55C1.55 16.01 2.41 14.7 3.52 13.61C4.63 12.52 5.94 11.69 7.44 11.09C8.94 10.5 10.58 10.2 12.36 10.2H18.55C20.39 10.2 22.08 10.5 23.61 11.11C25.14 11.72 26.45 12.57 27.55 13.66C28.65 14.76 29.5 16.07 30.1 17.6C30.71 19.13 31.01 20.81 31.01 22.66C31.01 24.51 30.7 26.22 30.08 27.81C29.46 29.4 28.6 30.77 27.49 31.92C26.38 33.08 25.07 33.99 23.55 34.65C22.03 35.32 20.36 35.65 18.55 35.65H12.36ZM18.55 31.2099C19.72 31.2099 20.79 31 21.77 30.58C22.75 30.16 23.6 29.58 24.31 28.85C25.02 28.11 25.58 27.2299 25.97 26.2099C26.37 25.1799 26.57 24.08 26.57 22.88C26.57 21.68 26.37 20.59 25.97 19.57C25.57 18.55 25.02 17.69 24.31 16.96C23.6 16.24 22.75 15.67 21.77 15.26C20.79 14.85 19.72 14.65 18.55 14.65H12.36C11.22 14.65 10.16 14.85 9.19 15.26C8.22 15.67 7.39 16.23 6.69 16.96C5.99 17.68 5.44 18.55 5.04 19.55C4.64 20.55 4.45 21.66 4.45 22.87C4.45 24.08 4.65 25.17 5.04 26.2C5.44 27.23 5.99 28.11 6.69 28.84C7.39 29.58 8.22 30.15 9.19 30.57C10.16 30.99 11.21 31.2 12.36 31.2H18.55V31.2099Z" fill="black"/>
<path d="M42.2801 28.58V24.28H52.5001C54.0601 24.28 55.2801 23.84 56.1601 22.95C57.0401 22.06 57.4701 20.9 57.4701 19.45C57.4701 18 57.0301 16.81 56.1601 15.95C55.2801 15.09 54.0701 14.66 52.5001 14.66H39.0301V35.65H34.6201V10.22H52.5001C53.9701 10.22 55.2801 10.44 56.4401 10.87C57.6001 11.3 58.5701 11.91 59.3601 12.69C60.1501 13.47 60.7601 14.42 61.1801 15.54C61.6001 16.66 61.8101 17.92 61.8101 19.32C61.8101 20.72 61.6001 21.95 61.1801 23.08C60.7601 24.21 60.1501 25.19 59.3601 26C58.5701 26.82 57.5901 27.45 56.4401 27.91C55.2901 28.37 53.9701 28.59 52.5001 28.59H42.2801V28.58Z" fill="black"/>
<path d="M94.9001 35.65L90.0401 17.77L82.8301 34.32C82.5701 34.86 82.2601 35.27 81.9001 35.56C81.5401 35.85 81.0901 36 80.5501 36C79.5001 36 78.7401 35.44 78.2801 34.32L71.1101 17.77L66.2401 35.65H61.8601L68.4001 11.72C68.7001 10.51 69.4401 9.90002 70.6101 9.90002C71.0801 9.90002 71.5101 10.03 71.9201 10.28C72.3301 10.53 72.6401 10.91 72.8501 11.4L80.6901 29.39L88.5301 11.4C88.9501 10.4 89.6601 9.90002 90.6701 9.90002C91.7401 9.90002 92.4601 10.51 92.8001 11.72L99.3101 35.65H94.9001Z" fill="black"/>
<path d="M128.77 35.65L124.96 29.24H112.92L115.02 25.64H122.83L117.16 16.12L105.61 35.64H100.54L115.17 11.29C115.43 10.85 115.73 10.5 116.08 10.24C116.43 9.97999 116.85 9.85999 117.34 9.85999C117.83 9.85999 118.24 9.98999 118.58 10.24C118.92 10.5 119.22 10.85 119.47 11.29L134.14 35.64H128.77V35.65Z" fill="black"/>
<path d="M140.49 35.65V14.66H130.83V10.21H154.58V14.66H144.92V35.65H140.47H140.48H140.49Z" fill="black"/>
<path d="M157.54 35.65V10.22H180.24V14.67H161.95V31.22H180.29V35.67H157.55L157.54 35.65ZM165.19 24.59V20.84H179.29V24.59H165.19Z" fill="black"/>
<path d="M191.27 10.74C188.31 10.74 185.9 8.33 185.9 5.37C185.9 2.41 188.31 0 191.27 0C194.23 0 196.64 2.41 196.64 5.37C196.64 8.33 194.23 10.74 191.27 10.74ZM191.27 2.24C189.54 2.24 188.14 3.64 188.14 5.37C188.14 7.1 189.54 8.5 191.27 8.5C193 8.5 194.4 7.1 194.4 5.37C194.4 3.64 193 2.24 191.27 2.24Z" fill="#D71927"/>
<mask id="path-8-outside-1_152_410" maskUnits="userSpaceOnUse" x="190" y="16" width="48" height="21" fill="black">
<rect fill="white" x="190" y="16" width="48" height="21"/>
<path d="M200.303 36C198.982 36 197.756 35.7565 196.625 35.2696C195.513 34.7653 194.539 34.0871 193.704 33.235C192.887 32.3656 192.243 31.3396 191.774 30.1571C191.322 28.9746 191.096 27.6964 191.096 26.3226C191.096 24.9315 191.322 23.662 191.774 22.5143C192.243 21.3666 192.887 20.3928 193.704 19.5928C194.539 18.7755 195.513 18.1495 196.625 17.7147C197.756 17.2626 198.982 17.0365 200.303 17.0365H204.92C206.294 17.0365 207.546 17.2626 208.677 17.7147C209.824 18.1669 210.807 18.8016 211.624 19.6189C212.441 20.4362 213.076 21.4187 213.528 22.5665C213.98 23.6968 214.206 24.9488 214.206 26.3226C214.206 27.6964 213.972 28.9746 213.502 30.1571C213.05 31.3396 212.407 32.3656 211.572 33.235C210.755 34.0871 209.781 34.7653 208.65 35.2696C207.52 35.7565 206.277 36 204.92 36H200.303ZM204.92 32.6873C205.79 32.6873 206.59 32.5308 207.32 32.2177C208.051 31.9047 208.677 31.4787 209.198 30.9396C209.737 30.3831 210.155 29.7223 210.45 28.9572C210.746 28.192 210.894 27.366 210.894 26.4791C210.894 25.5923 210.746 24.775 210.45 24.0272C210.155 23.262 209.737 22.6099 209.198 22.0709C208.677 21.5318 208.051 21.1144 207.32 20.8188C206.59 20.5058 205.79 20.3493 204.92 20.3493H200.303C199.451 20.3493 198.66 20.5058 197.93 20.8188C197.217 21.1144 196.599 21.5318 196.078 22.0709C195.556 22.6099 195.147 23.2534 194.852 24.0011C194.556 24.7489 194.408 25.5749 194.408 26.4791C194.408 27.366 194.556 28.192 194.852 28.9572C195.147 29.7223 195.556 30.3831 196.078 30.9396C196.599 31.4787 197.217 31.9047 197.93 32.2177C198.66 32.5308 199.451 32.6873 200.303 32.6873H204.92ZM220.487 22.123V36H217.331V18.7842C217.331 18.1756 217.479 17.6973 217.774 17.3496C218.087 16.9844 218.504 16.8018 219.026 16.8018C219.27 16.8018 219.504 16.8539 219.73 16.9583C219.957 17.0626 220.191 17.2365 220.435 17.48L233.816 30.757V16.88H236.972V34.2523C236.972 34.8784 236.816 35.3653 236.503 35.7131C236.207 36.0609 235.816 36.2348 235.329 36.2348C234.79 36.2348 234.286 36 233.816 35.5305L220.487 22.123Z"/>
</mask>
<path d="M200.303 36C198.982 36 197.756 35.7565 196.625 35.2696C195.513 34.7653 194.539 34.0871 193.704 33.235C192.887 32.3656 192.243 31.3396 191.774 30.1571C191.322 28.9746 191.096 27.6964 191.096 26.3226C191.096 24.9315 191.322 23.662 191.774 22.5143C192.243 21.3666 192.887 20.3928 193.704 19.5928C194.539 18.7755 195.513 18.1495 196.625 17.7147C197.756 17.2626 198.982 17.0365 200.303 17.0365H204.92C206.294 17.0365 207.546 17.2626 208.677 17.7147C209.824 18.1669 210.807 18.8016 211.624 19.6189C212.441 20.4362 213.076 21.4187 213.528 22.5665C213.98 23.6968 214.206 24.9488 214.206 26.3226C214.206 27.6964 213.972 28.9746 213.502 30.1571C213.05 31.3396 212.407 32.3656 211.572 33.235C210.755 34.0871 209.781 34.7653 208.65 35.2696C207.52 35.7565 206.277 36 204.92 36H200.303ZM204.92 32.6873C205.79 32.6873 206.59 32.5308 207.32 32.2177C208.051 31.9047 208.677 31.4787 209.198 30.9396C209.737 30.3831 210.155 29.7223 210.45 28.9572C210.746 28.192 210.894 27.366 210.894 26.4791C210.894 25.5923 210.746 24.775 210.45 24.0272C210.155 23.262 209.737 22.6099 209.198 22.0709C208.677 21.5318 208.051 21.1144 207.32 20.8188C206.59 20.5058 205.79 20.3493 204.92 20.3493H200.303C199.451 20.3493 198.66 20.5058 197.93 20.8188C197.217 21.1144 196.599 21.5318 196.078 22.0709C195.556 22.6099 195.147 23.2534 194.852 24.0011C194.556 24.7489 194.408 25.5749 194.408 26.4791C194.408 27.366 194.556 28.192 194.852 28.9572C195.147 29.7223 195.556 30.3831 196.078 30.9396C196.599 31.4787 197.217 31.9047 197.93 32.2177C198.66 32.5308 199.451 32.6873 200.303 32.6873H204.92ZM220.487 22.123V36H217.331V18.7842C217.331 18.1756 217.479 17.6973 217.774 17.3496C218.087 16.9844 218.504 16.8018 219.026 16.8018C219.27 16.8018 219.504 16.8539 219.73 16.9583C219.957 17.0626 220.191 17.2365 220.435 17.48L233.816 30.757V16.88H236.972V34.2523C236.972 34.8784 236.816 35.3653 236.503 35.7131C236.207 36.0609 235.816 36.2348 235.329 36.2348C234.79 36.2348 234.286 36 233.816 35.5305L220.487 22.123Z" fill="#626262"/>
<path d="M196.625 35.2696L196.523 35.4954L196.527 35.4972L196.625 35.2696ZM193.704 33.235L193.523 33.4048L193.527 33.4084L193.704 33.235ZM191.774 30.1571L191.542 30.2456L191.543 30.2485L191.774 30.1571ZM191.774 22.5143L191.544 22.4205L191.543 22.4235L191.774 22.5143ZM193.704 19.5928L193.877 19.7699L193.877 19.7699L193.704 19.5928ZM196.625 17.7147L196.716 17.9456L196.718 17.9448L196.625 17.7147ZM208.677 17.7147L208.584 17.9448L208.586 17.9453L208.677 17.7147ZM213.528 22.5665L213.298 22.6573L213.298 22.6585L213.528 22.5665ZM213.502 30.1571L213.272 30.0656L213.271 30.0686L213.502 30.1571ZM211.572 33.235L211.393 33.0634L211.393 33.0635L211.572 33.235ZM208.65 35.2696L208.748 35.4972L208.751 35.4959L208.65 35.2696ZM207.32 32.2177L207.223 31.99L207.32 32.2177ZM209.198 30.9396L209.02 30.7672L209.02 30.7673L209.198 30.9396ZM210.45 24.0272L210.219 24.1165L210.22 24.1183L210.45 24.0272ZM209.198 22.0709L209.02 22.2432L209.023 22.2461L209.198 22.0709ZM207.32 20.8188L207.222 21.0466L207.227 21.0485L207.32 20.8188ZM197.93 20.8188L198.025 21.0477L198.027 21.0466L197.93 20.8188ZM196.078 22.0709L195.9 21.8985L196.078 22.0709ZM194.852 24.0011L194.621 23.91L194.852 24.0011ZM194.852 28.9572L194.621 29.0465L194.852 28.9572ZM196.078 30.9396L195.897 31.1091L195.9 31.1119L196.078 30.9396ZM197.93 32.2177L197.83 32.4447L197.832 32.4455L197.93 32.2177ZM200.303 36V35.7522C199.013 35.7522 197.821 35.5147 196.724 35.042L196.625 35.2696L196.527 35.4972C197.691 35.9984 198.951 36.2478 200.303 36.2478V36ZM196.625 35.2696L196.728 35.0439C195.642 34.552 194.694 33.8913 193.881 33.0616L193.704 33.235L193.527 33.4084C194.384 34.283 195.383 34.9787 196.523 35.4953L196.625 35.2696ZM193.704 33.235L193.885 33.0653C193.09 32.22 192.463 31.2211 192.004 30.0656L191.774 30.1571L191.543 30.2485C192.024 31.4581 192.683 32.5111 193.523 33.4048L193.704 33.235ZM191.774 30.1571L192.005 30.0686C191.565 28.9166 191.343 27.6688 191.343 26.3226H191.096H190.848C190.848 27.7241 191.078 29.0325 191.542 30.2456L191.774 30.1571ZM191.096 26.3226H191.343C191.343 24.9586 191.565 23.7205 192.004 22.6051L191.774 22.5143L191.543 22.4235C191.078 23.6036 190.848 24.9043 190.848 26.3226H191.096ZM191.774 22.5143L192.003 22.6081C192.461 21.489 193.086 20.5443 193.877 19.7699L193.704 19.5928L193.531 19.4157C192.687 20.2412 192.026 21.2441 191.544 22.4205L191.774 22.5143ZM193.704 19.5928L193.877 19.7699C194.688 18.9764 195.633 18.3684 196.716 17.9456L196.625 17.7147L196.535 17.4839C195.392 17.9305 194.39 18.5746 193.531 19.4158L193.704 19.5928ZM196.625 17.7147L196.718 17.9448C197.816 17.5054 199.011 17.2843 200.303 17.2843V17.0365V16.7887C198.953 16.7887 197.695 17.0198 196.533 17.4847L196.625 17.7147ZM200.303 17.0365V17.2843H204.92V17.0365V16.7887H200.303V17.0365ZM204.92 17.0365V17.2843C206.267 17.2843 207.487 17.5058 208.584 17.9448L208.677 17.7147L208.769 17.4847C207.605 17.0194 206.322 16.7887 204.92 16.7887V17.0365ZM208.677 17.7147L208.586 17.9453C209.704 18.3858 210.657 19.0024 211.449 19.7941L211.624 19.6189L211.799 19.4437C210.956 18.6007 209.945 17.9479 208.767 17.4842L208.677 17.7147ZM211.624 19.6189L211.449 19.7941C212.241 20.5858 212.857 21.539 213.298 22.6573L213.528 22.5665L213.759 22.4756C213.295 21.2984 212.642 20.2866 211.799 19.4437L211.624 19.6189ZM213.528 22.5665L213.298 22.6585C213.737 23.756 213.959 24.9763 213.959 26.3226H214.206H214.454C214.454 24.9214 214.224 23.6376 213.758 22.4744L213.528 22.5665ZM214.206 26.3226H213.959C213.959 27.6676 213.729 28.9145 213.272 30.0656L213.502 30.1571L213.732 30.2485C214.214 29.0347 214.454 27.7252 214.454 26.3226H214.206ZM213.502 30.1571L213.271 30.0686C212.83 31.2217 212.204 32.219 211.393 33.0634L211.572 33.235L211.751 33.4067C212.609 32.5121 213.27 31.4574 213.734 30.2456L213.502 30.1571ZM211.572 33.235L211.393 33.0635C210.599 33.8914 209.652 34.5514 208.549 35.0433L208.65 35.2696L208.751 35.4959C209.91 34.9792 210.91 34.2829 211.751 33.4066L211.572 33.235ZM208.65 35.2696L208.552 35.042C207.456 35.5143 206.247 35.7522 204.92 35.7522V36V36.2478C206.307 36.2478 207.584 35.9988 208.748 35.4972L208.65 35.2696ZM204.92 36V35.7522H200.303V36V36.2478H204.92V36ZM204.92 32.6873V32.9351C205.82 32.9351 206.654 32.7729 207.418 32.4455L207.32 32.2177L207.223 31.99C206.526 32.2886 205.759 32.4395 204.92 32.4395V32.6873ZM207.32 32.2177L207.418 32.4455C208.177 32.1203 208.83 31.676 209.376 31.1119L209.198 30.9396L209.02 30.7673C208.523 31.2813 207.924 31.6891 207.223 31.99L207.32 32.2177ZM209.198 30.9396L209.376 31.112C209.94 30.5303 210.375 29.8408 210.681 29.0465L210.45 28.9572L210.219 28.8679C209.935 29.6039 209.535 30.236 209.02 30.7672L209.198 30.9396ZM210.45 28.9572L210.681 29.0465C210.989 28.2506 211.142 27.3941 211.142 26.4791H210.894H210.646C210.646 27.338 210.503 28.1334 210.219 28.8679L210.45 28.9572ZM210.894 26.4791H211.142C211.142 25.5643 210.989 24.7157 210.681 23.9361L210.45 24.0272L210.22 24.1183C210.503 24.8342 210.646 25.6202 210.646 26.4791H210.894ZM210.45 24.0272L210.681 23.9379C210.374 23.143 209.939 22.461 209.373 21.8956L209.198 22.0709L209.023 22.2461C209.536 22.7589 209.935 23.3811 210.219 24.1165L210.45 24.0272ZM209.198 22.0709L209.376 21.8985C208.829 21.3333 208.174 20.897 207.413 20.5891L207.32 20.8188L207.227 21.0485C207.927 21.3318 208.524 21.7302 209.02 22.2432L209.198 22.0709ZM207.32 20.8188L207.418 20.591C206.654 20.2636 205.82 20.1015 204.92 20.1015V20.3493V20.5971C205.759 20.5971 206.526 20.748 207.223 21.0466L207.32 20.8188ZM204.92 20.3493V20.1015H200.303V20.3493V20.5971H204.92V20.3493ZM200.303 20.3493V20.1015C199.42 20.1015 198.595 20.2639 197.832 20.591L197.93 20.8188L198.027 21.0466C198.725 20.7477 199.482 20.5971 200.303 20.5971V20.3493ZM197.93 20.8188L197.835 20.5899C197.091 20.8981 196.446 21.3344 195.9 21.8985L196.078 22.0709L196.256 22.2432C196.753 21.7292 197.342 21.3307 198.025 21.0477L197.93 20.8188ZM196.078 22.0709L195.9 21.8985C195.354 22.4626 194.928 23.1342 194.621 23.91L194.852 24.0011L195.082 24.0922C195.367 23.3725 195.758 22.7572 196.256 22.2432L196.078 22.0709ZM194.852 24.0011L194.621 23.91C194.313 24.6902 194.16 25.5476 194.16 26.4791H194.408H194.656C194.656 25.6022 194.799 24.8076 195.082 24.0922L194.852 24.0011ZM194.408 26.4791H194.16C194.16 27.3941 194.313 28.2506 194.621 29.0465L194.852 28.9572L195.083 28.8679C194.799 28.1334 194.656 27.338 194.656 26.4791H194.408ZM194.852 28.9572L194.621 29.0465C194.927 29.8391 195.352 30.5277 195.897 31.1091L196.078 30.9396L196.258 30.7701C195.76 30.2386 195.368 29.6056 195.083 28.8679L194.852 28.9572ZM196.078 30.9396L195.9 31.1119C196.445 31.675 197.089 32.1192 197.83 32.4446L197.93 32.2177L198.029 31.9908C197.345 31.6903 196.754 31.2824 196.256 30.7673L196.078 30.9396ZM197.93 32.2177L197.832 32.4455C198.595 32.7727 199.42 32.9351 200.303 32.9351V32.6873V32.4395C199.482 32.4395 198.725 32.2888 198.027 31.99L197.93 32.2177ZM200.303 32.6873V32.9351H204.92V32.6873V32.4395H200.303V32.6873ZM220.487 22.123L220.663 21.9483L220.239 21.5223V22.123H220.487ZM220.487 36V36.2478H220.735V36H220.487ZM217.331 36H217.083V36.2478H217.331V36ZM217.774 17.3496L217.586 17.1883L217.585 17.1891L217.774 17.3496ZM219.73 16.9583L219.627 17.1833V17.1833L219.73 16.9583ZM220.435 17.48L220.26 17.6552L220.26 17.6559L220.435 17.48ZM233.816 30.757L233.642 30.9329L234.064 31.352V30.757H233.816ZM233.816 16.88V16.6322H233.568V16.88H233.816ZM236.972 16.88H237.22V16.6322H236.972V16.88ZM236.503 35.7131L236.319 35.5472L236.314 35.5526L236.503 35.7131ZM233.816 35.5305L233.64 35.7052L233.641 35.7057L233.816 35.5305ZM220.487 22.123H220.239V36H220.487H220.735V22.123H220.487ZM220.487 36V35.7522H217.331V36V36.2478H220.487V36ZM217.331 36H217.578V18.7842H217.331H217.083V36H217.331ZM217.331 18.7842H217.578C217.578 18.2146 217.716 17.8 217.963 17.51L217.774 17.3496L217.585 17.1891C217.241 17.5947 217.083 18.1365 217.083 18.7842H217.331ZM217.774 17.3496L217.962 17.5108C218.224 17.2056 218.57 17.0496 219.026 17.0496V16.8018V16.554C218.439 16.554 217.95 16.7631 217.586 17.1883L217.774 17.3496ZM219.026 16.8018V17.0496C219.233 17.0496 219.432 17.0936 219.627 17.1833L219.73 16.9583L219.834 16.7333C219.576 16.6143 219.306 16.554 219.026 16.554V16.8018ZM219.73 16.9583L219.627 17.1833C219.818 17.2717 220.029 17.4251 220.26 17.6552L220.435 17.48L220.61 17.3048C220.353 17.048 220.095 16.8536 219.834 16.7333L219.73 16.9583ZM220.435 17.48L220.26 17.6559L233.642 30.9329L233.816 30.757L233.991 30.5811L220.609 17.3041L220.435 17.48ZM233.816 30.757H234.064V16.88H233.816H233.568V30.757H233.816ZM233.816 16.88V17.1278H236.972V16.88V16.6322H233.816V16.88ZM236.972 16.88H236.725V34.2523H236.972H237.22V16.88H236.972ZM236.972 34.2523H236.725C236.725 34.8382 236.579 35.2585 236.319 35.5473L236.503 35.7131L236.687 35.8788C237.053 35.472 237.22 34.9186 237.22 34.2523H236.972ZM236.503 35.7131L236.314 35.5526C236.069 35.8409 235.749 35.987 235.329 35.987V36.2348V36.4826C235.883 36.4826 236.345 36.2808 236.692 35.8736L236.503 35.7131ZM235.329 36.2348V35.987C234.87 35.987 234.426 35.7897 233.991 35.3553L233.816 35.5305L233.641 35.7057C234.145 36.2103 234.71 36.4826 235.329 36.4826V36.2348ZM233.816 35.5305L233.992 35.3558L220.663 21.9483L220.487 22.123L220.311 22.2977L233.64 35.7052L233.816 35.5305Z" fill="#626262" mask="url(#path-8-outside-1_152_410)"/>
<mask id="path-10-outside-2_152_410" maskUnits="userSpaceOnUse" x="247" y="16" width="52" height="21" fill="black">
<rect fill="white" x="247" y="16" width="52" height="21"/>
<path d="M247.643 36V32.6873H261.859C262.746 32.6873 263.424 32.4612 263.894 32.0091C264.381 31.5569 264.624 30.957 264.624 30.2092C264.624 29.3919 264.381 28.7833 263.894 28.3833C263.424 27.966 262.746 27.7573 261.859 27.7573H253.147C252.26 27.7573 251.452 27.6269 250.721 27.366C250.008 27.0878 249.4 26.7139 248.895 26.2444C248.408 25.7575 248.026 25.1836 247.748 24.5228C247.487 23.862 247.356 23.1403 247.356 22.3578C247.356 21.5926 247.478 20.8884 247.722 20.2449C247.982 19.5841 248.356 19.019 248.843 18.5494C249.348 18.0799 249.965 17.7147 250.695 17.4539C251.426 17.1757 252.26 17.0365 253.199 17.0365H266.815V20.3493H253.199C252.434 20.3493 251.843 20.558 251.426 20.9753C251.008 21.3753 250.8 21.9404 250.8 22.6708C250.8 23.4012 251.008 23.9663 251.426 24.3663C251.86 24.7663 252.443 24.9662 253.173 24.9662H261.859C263.79 24.9662 265.25 25.4184 266.242 26.3226C267.25 27.2269 267.755 28.6007 267.755 30.444C267.755 31.2439 267.633 31.983 267.389 32.6612C267.146 33.3394 266.781 33.9306 266.294 34.4349C265.807 34.9218 265.19 35.3044 264.442 35.5826C263.711 35.8609 262.851 36 261.859 36H247.643ZM286.741 36L276.125 27.6529C275.829 27.4269 275.638 27.2095 275.551 27.0008C275.481 26.7748 275.446 26.5313 275.446 26.2705C275.446 25.9748 275.499 25.714 275.603 25.4879C275.707 25.2619 275.933 25.0184 276.281 24.7576L286.324 17.0365H291.41L278.994 26.2966L291.801 36H286.741ZM271.116 36V17.0365H274.429V36H271.116ZM294.645 36V17.0365H297.957V36H294.645Z"/>
</mask>
<path d="M247.643 36V32.6873H261.859C262.746 32.6873 263.424 32.4612 263.894 32.0091C264.381 31.5569 264.624 30.957 264.624 30.2092C264.624 29.3919 264.381 28.7833 263.894 28.3833C263.424 27.966 262.746 27.7573 261.859 27.7573H253.147C252.26 27.7573 251.452 27.6269 250.721 27.366C250.008 27.0878 249.4 26.7139 248.895 26.2444C248.408 25.7575 248.026 25.1836 247.748 24.5228C247.487 23.862 247.356 23.1403 247.356 22.3578C247.356 21.5926 247.478 20.8884 247.722 20.2449C247.982 19.5841 248.356 19.019 248.843 18.5494C249.348 18.0799 249.965 17.7147 250.695 17.4539C251.426 17.1757 252.26 17.0365 253.199 17.0365H266.815V20.3493H253.199C252.434 20.3493 251.843 20.558 251.426 20.9753C251.008 21.3753 250.8 21.9404 250.8 22.6708C250.8 23.4012 251.008 23.9663 251.426 24.3663C251.86 24.7663 252.443 24.9662 253.173 24.9662H261.859C263.79 24.9662 265.25 25.4184 266.242 26.3226C267.25 27.2269 267.755 28.6007 267.755 30.444C267.755 31.2439 267.633 31.983 267.389 32.6612C267.146 33.3394 266.781 33.9306 266.294 34.4349C265.807 34.9218 265.19 35.3044 264.442 35.5826C263.711 35.8609 262.851 36 261.859 36H247.643ZM286.741 36L276.125 27.6529C275.829 27.4269 275.638 27.2095 275.551 27.0008C275.481 26.7748 275.446 26.5313 275.446 26.2705C275.446 25.9748 275.499 25.714 275.603 25.4879C275.707 25.2619 275.933 25.0184 276.281 24.7576L286.324 17.0365H291.41L278.994 26.2966L291.801 36H286.741ZM271.116 36V17.0365H274.429V36H271.116ZM294.645 36V17.0365H297.957V36H294.645Z" fill="#626262"/>
<path d="M247.643 36H247.396V36.2478H247.643V36ZM247.643 32.6873V32.4395H247.396V32.6873H247.643ZM263.894 32.0091L263.725 31.8274L263.722 31.8306L263.894 32.0091ZM263.894 28.3833L263.729 28.5687L263.737 28.5748L263.894 28.3833ZM250.721 27.366L250.631 27.597L250.638 27.5994L250.721 27.366ZM248.895 26.2444L248.72 26.4197L248.727 26.4257L248.895 26.2444ZM247.748 24.5228L247.517 24.6138L247.519 24.619L247.748 24.5228ZM247.722 20.2449L247.491 20.1539L247.49 20.1572L247.722 20.2449ZM248.843 18.5494L248.674 18.368L248.671 18.3711L248.843 18.5494ZM250.695 17.4539L250.779 17.6873L250.783 17.6855L250.695 17.4539ZM266.815 17.0365H267.063V16.7887H266.815V17.0365ZM266.815 20.3493V20.5971H267.063V20.3493H266.815ZM251.426 20.9753L251.597 21.1543L251.601 21.1505L251.426 20.9753ZM251.426 24.3663L251.254 24.5452L251.258 24.5487L251.426 24.3663ZM266.242 26.3226L266.075 26.5057L266.076 26.5071L266.242 26.3226ZM267.389 32.6612L267.156 32.5775L267.389 32.6612ZM266.294 34.4349L266.469 34.6102L266.472 34.607L266.294 34.4349ZM264.442 35.5826L264.355 35.3504L264.354 35.3511L264.442 35.5826ZM247.643 36H247.891V32.6873H247.643H247.396V36H247.643ZM247.643 32.6873V32.9351H261.859V32.6873V32.4395H247.643V32.6873ZM261.859 32.6873V32.9351C262.787 32.9351 263.536 32.6982 264.066 32.1876L263.894 32.0091L263.722 31.8306C263.313 32.2242 262.706 32.4395 261.859 32.4395V32.6873ZM263.894 32.0091L264.063 32.1907C264.607 31.6855 264.872 31.0164 264.872 30.2092H264.624H264.377C264.377 30.8976 264.155 31.4284 263.725 31.8275L263.894 32.0091ZM264.624 30.2092H264.872C264.872 29.3415 264.612 28.6521 264.051 28.1918L263.894 28.3833L263.737 28.5748C264.15 28.9145 264.377 29.4423 264.377 30.2092H264.624ZM263.894 28.3833L264.059 28.1981C263.528 27.7265 262.782 27.5095 261.859 27.5095V27.7573V28.0051C262.71 28.0051 263.321 28.2054 263.729 28.5685L263.894 28.3833ZM261.859 27.7573V27.5095H253.147V27.7573V28.0051H261.859V27.7573ZM253.147 27.7573V27.5095C252.285 27.5095 251.505 27.3827 250.805 27.1327L250.721 27.366L250.638 27.5994C251.399 27.871 252.236 28.0051 253.147 28.0051V27.7573ZM250.721 27.366L250.811 27.1352C250.124 26.867 249.543 26.509 249.064 26.063L248.895 26.2444L248.727 26.4257C249.256 26.9188 249.892 27.3085 250.631 27.5969L250.721 27.366ZM248.895 26.2444L249.071 26.0692C248.607 25.6058 248.242 25.0591 247.976 24.4266L247.748 24.5228L247.519 24.619C247.809 25.3081 248.21 25.9091 248.72 26.4196L248.895 26.2444ZM247.748 24.5228L247.978 24.4318C247.73 23.8028 247.604 23.1123 247.604 22.3578H247.356H247.109C247.109 23.1683 247.244 23.9212 247.517 24.6138L247.748 24.5228ZM247.356 22.3578H247.604C247.604 21.6192 247.722 20.9451 247.953 20.3326L247.722 20.2449L247.49 20.1572C247.235 20.8317 247.109 21.566 247.109 22.3578H247.356ZM247.722 20.2449L247.952 20.3359C248.201 19.7064 248.555 19.1715 249.015 18.7278L248.843 18.5494L248.671 18.3711C248.157 18.8664 247.764 19.4619 247.491 20.154L247.722 20.2449ZM248.843 18.5494L249.012 18.7308C249.489 18.287 250.076 17.9382 250.779 17.6873L250.695 17.4539L250.612 17.2205C249.854 17.4913 249.206 17.8729 248.674 18.3681L248.843 18.5494ZM250.695 17.4539L250.783 17.6855C251.481 17.4199 252.285 17.2843 253.199 17.2843V17.0365V16.7887C252.236 16.7887 251.371 16.9314 250.607 17.2223L250.695 17.4539ZM253.199 17.0365V17.2843H266.815V17.0365V16.7887H253.199V17.0365ZM266.815 17.0365H266.568V20.3493H266.815H267.063V17.0365H266.815ZM266.815 20.3493V20.1015H253.199V20.3493V20.5971H266.815V20.3493ZM253.199 20.3493V20.1015C252.389 20.1015 251.727 20.3236 251.25 20.8001L251.426 20.9753L251.601 21.1505C251.959 20.7923 252.48 20.5971 253.199 20.5971V20.3493ZM251.426 20.9753L251.254 20.7964C250.776 21.2547 250.552 21.8917 250.552 22.6708H250.8H251.047C251.047 21.9891 251.241 21.4958 251.597 21.1542L251.426 20.9753ZM250.8 22.6708H250.552C250.552 23.4499 250.776 24.0869 251.254 24.5452L251.426 24.3663L251.597 24.1874C251.241 23.8458 251.047 23.3525 251.047 22.6708H250.8ZM251.426 24.3663L251.258 24.5487C251.748 25.0001 252.396 25.214 253.173 25.214V24.9662V24.7184C252.49 24.7184 251.972 24.5324 251.593 24.1839L251.426 24.3663ZM253.173 24.9662V25.214H261.859V24.9662V24.7184H253.173V24.9662ZM261.859 24.9662V25.214C263.755 25.214 265.146 25.6582 266.075 26.5057L266.242 26.3226L266.409 26.1396C265.355 25.1785 263.825 24.7184 261.859 24.7184V24.9662ZM266.242 26.3226L266.076 26.5071C267.015 27.3492 267.507 28.6446 267.507 30.444H267.755H268.002C268.002 28.5568 267.485 27.1046 266.407 26.1381L266.242 26.3226ZM267.755 30.444H267.507C267.507 31.2185 267.389 31.9289 267.156 32.5775L267.389 32.6612L267.623 32.7449C267.877 32.0371 268.002 31.2693 268.002 30.444H267.755ZM267.389 32.6612L267.156 32.5775C266.924 33.2236 266.577 33.7845 266.116 34.2628L266.294 34.4349L266.472 34.607C266.984 34.0768 267.368 33.4552 267.623 32.7449L267.389 32.6612ZM266.294 34.4349L266.119 34.2597C265.66 34.7178 265.075 35.0826 264.355 35.3504L264.442 35.5826L264.528 35.8149C265.304 35.5262 265.953 35.1259 266.469 34.6102L266.294 34.4349ZM264.442 35.5826L264.354 35.3511C263.658 35.6161 262.828 35.7522 261.859 35.7522V36V36.2478C262.873 36.2478 263.765 36.1056 264.53 35.8142L264.442 35.5826ZM261.859 36V35.7522H247.643V36V36.2478H261.859V36ZM286.741 36L286.588 36.1948L286.655 36.2478H286.741V36ZM276.125 27.6529L276.278 27.4581L276.275 27.4561L276.125 27.6529ZM275.551 27.0008L275.314 27.0737L275.317 27.0851L275.322 27.0961L275.551 27.0008ZM275.603 25.4879L275.378 25.3841H275.378L275.603 25.4879ZM276.281 24.7576L276.43 24.9558L276.432 24.954L276.281 24.7576ZM286.324 17.0365V16.7887H286.239L286.173 16.8401L286.324 17.0365ZM291.41 17.0365L291.558 17.2352L292.157 16.7887H291.41V17.0365ZM278.994 26.2966L278.846 26.0979L278.581 26.295L278.844 26.4941L278.994 26.2966ZM291.801 36V36.2478H292.539L291.951 35.8025L291.801 36ZM271.116 36H270.869V36.2478H271.116V36ZM271.116 17.0365V16.7887H270.869V17.0365H271.116ZM274.429 17.0365H274.677V16.7887H274.429V17.0365ZM274.429 36V36.2478H274.677V36H274.429ZM286.741 36L286.894 35.8052L276.278 27.4581L276.125 27.6529L275.971 27.8477L286.588 36.1948L286.741 36ZM276.125 27.6529L276.275 27.4561C275.994 27.2412 275.842 27.056 275.779 26.9055L275.551 27.0008L275.322 27.0961C275.433 27.363 275.664 27.6125 275.974 27.8498L276.125 27.6529ZM275.551 27.0008L275.788 26.928C275.726 26.7278 275.694 26.5091 275.694 26.2705H275.446H275.199C275.199 26.5535 275.236 26.8217 275.314 27.0737L275.551 27.0008ZM275.446 26.2705H275.694C275.694 26.0041 275.741 25.7798 275.828 25.5918L275.603 25.4879L275.378 25.3841C275.256 25.6482 275.199 25.9456 275.199 26.2705H275.446ZM275.603 25.4879L275.828 25.5918C275.907 25.4213 276.094 25.2079 276.43 24.9558L276.281 24.7576L276.132 24.5593C275.773 24.8289 275.508 25.1024 275.378 25.3841L275.603 25.4879ZM276.281 24.7576L276.432 24.954L286.475 17.233L286.324 17.0365L286.173 16.8401L276.13 24.5611L276.281 24.7576ZM286.324 17.0365V17.2843H291.41V17.0365V16.7887H286.324V17.0365ZM291.41 17.0365L291.262 16.8379L278.846 26.0979L278.994 26.2966L279.142 26.4952L291.558 17.2352L291.41 17.0365ZM278.994 26.2966L278.844 26.4941L291.652 36.1975L291.801 36L291.951 35.8025L279.144 26.099L278.994 26.2966ZM291.801 36V35.7522H286.741V36V36.2478H291.801V36ZM271.116 36H271.364V17.0365H271.116H270.869V36H271.116ZM271.116 17.0365V17.2843H274.429V17.0365V16.7887H271.116V17.0365ZM274.429 17.0365H274.181V36H274.429H274.677V17.0365H274.429ZM274.429 36V35.7522H271.116V36V36.2478H274.429V36ZM294.645 36H294.397V36.2478H294.645V36ZM294.645 17.0365V16.7887H294.397V17.0365H294.645ZM297.957 17.0365H298.205V16.7887H297.957V17.0365ZM297.957 36V36.2478H298.205V36H297.957ZM294.645 36H294.892V17.0365H294.645H294.397V36H294.645ZM294.645 17.0365V17.2843H297.957V17.0365V16.7887H294.645V17.0365ZM297.957 17.0365H297.71V36H297.957H298.205V17.0365H297.957ZM297.957 36V35.7522H294.645V36V36.2478H297.957V36Z" fill="#626262" mask="url(#path-10-outside-2_152_410)"/>
</g>
<defs>
<clipPath id="clip0_152_410">
<rect width="336.47" height="36" fill="white"/>
</clipPath>
</defs>
</svg>
