<svg width="298" height="36" viewBox="0 0 298 36" fill="none" xmlns="http://www.w3.org/2000/svg">
<path d="M12.36 35.65C10.59 35.65 8.95 35.32 7.44 34.65C5.93 33.98 4.63 33.07 3.52 31.92C2.41 30.77 1.55 29.39 0.93 27.81C0.31 26.22 0 24.51 0 22.66C0 20.81 0.31 19.09 0.93 17.55C1.55 16.01 2.41 14.7 3.52 13.61C4.63 12.52 5.94 11.69 7.44 11.09C8.94 10.5 10.58 10.2 12.36 10.2H18.55C20.39 10.2 22.08 10.5 23.61 11.11C25.14 11.72 26.45 12.57 27.55 13.66C28.65 14.76 29.5 16.07 30.1 17.6C30.71 19.13 31.01 20.81 31.01 22.66C31.01 24.51 30.7 26.22 30.08 27.81C29.46 29.4 28.6 30.77 27.49 31.92C26.38 33.08 25.07 33.99 23.55 34.65C22.03 35.32 20.36 35.65 18.55 35.65H12.36ZM18.55 31.2099C19.72 31.2099 20.79 31 21.77 30.58C22.75 30.16 23.6 29.58 24.31 28.85C25.02 28.11 25.58 27.2299 25.97 26.2099C26.37 25.1799 26.57 24.08 26.57 22.88C26.57 21.68 26.37 20.59 25.97 19.57C25.57 18.55 25.02 17.69 24.31 16.96C23.6 16.24 22.75 15.67 21.77 15.26C20.79 14.85 19.72 14.65 18.55 14.65H12.36C11.22 14.65 10.16 14.85 9.19 15.26C8.22 15.67 7.39 16.23 6.69 16.96C5.99 17.68 5.44 18.55 5.04 19.55C4.64 20.55 4.45 21.66 4.45 22.87C4.45 24.08 4.65 25.17 5.04 26.2C5.44 27.23 5.99 28.11 6.69 28.84C7.39 29.58 8.22 30.15 9.19 30.57C10.16 30.99 11.21 31.2 12.36 31.2H18.55V31.2099Z" fill="black"/>
<path d="M42.2801 28.58V24.28H52.5001C54.0601 24.28 55.2801 23.84 56.1601 22.95C57.0401 22.06 57.4701 20.9 57.4701 19.45C57.4701 18 57.0301 16.81 56.1601 15.95C55.2801 15.09 54.0701 14.66 52.5001 14.66H39.0301V35.65H34.6201V10.22H52.5001C53.9701 10.22 55.2801 10.44 56.4401 10.87C57.6001 11.3 58.5701 11.91 59.3601 12.69C60.1501 13.47 60.7601 14.42 61.1801 15.54C61.6001 16.66 61.8101 17.92 61.8101 19.32C61.8101 20.72 61.6001 21.95 61.1801 23.08C60.7601 24.21 60.1501 25.19 59.3601 26C58.5701 26.82 57.5901 27.45 56.4401 27.91C55.2901 28.37 53.9701 28.59 52.5001 28.59H42.2801V28.58Z" fill="black"/>
<path d="M94.9001 35.65L90.0401 17.77L82.8301 34.32C82.5701 34.86 82.2601 35.27 81.9001 35.56C81.5401 35.85 81.0901 36 80.5501 36C79.5001 36 78.7401 35.44 78.2801 34.32L71.1101 17.77L66.2401 35.65H61.8601L68.4001 11.72C68.7001 10.51 69.4401 9.90002 70.6101 9.90002C71.0801 9.90002 71.5101 10.03 71.9201 10.28C72.3301 10.53 72.6401 10.91 72.8501 11.4L80.6901 29.39L88.5301 11.4C88.9501 10.4 89.6601 9.90002 90.6701 9.90002C91.7401 9.90002 92.4601 10.51 92.8001 11.72L99.3101 35.65H94.9001Z" fill="black"/>
<path d="M128.77 35.65L124.96 29.24H112.92L115.02 25.64H122.83L117.16 16.12L105.61 35.64H100.54L115.17 11.29C115.43 10.85 115.73 10.5 116.08 10.24C116.43 9.97999 116.85 9.85999 117.34 9.85999C117.83 9.85999 118.24 9.98999 118.58 10.24C118.92 10.5 119.22 10.85 119.47 11.29L134.14 35.64H128.77V35.65Z" fill="black"/>
<path d="M140.49 35.65V14.66H130.83V10.21H154.58V14.66H144.92V35.65H140.47H140.48H140.49Z" fill="black"/>
<path d="M157.54 35.65V10.22H180.24V14.67H161.95V31.22H180.29V35.67H157.55L157.54 35.65ZM165.19 24.59V20.84H179.29V24.59H165.19Z" fill="black"/>
<path d="M191.27 10.74C188.31 10.74 185.9 8.33 185.9 5.37C185.9 2.41 188.31 0 191.27 0C194.23 0 196.64 2.41 196.64 5.37C196.64 8.33 194.23 10.74 191.27 10.74ZM191.27 2.24C189.54 2.24 188.14 3.64 188.14 5.37C188.14 7.1 189.54 8.5 191.27 8.5C193 8.5 194.4 7.1 194.4 5.37C194.4 3.64 193 2.24 191.27 2.24Z" fill="#D71927"/>
<path d="M230.98 18.6401H227.81V30.3801L216.57 19.2201C216.4 19.0501 216.24 18.9201 216.07 18.8101L215.9 18.7201C215.68 18.6201 215.44 18.5601 215.2 18.5601C214.75 18.5601 214.37 18.7001 214.07 18.9801L213.95 19.1101C213.65 19.4601 213.51 19.9301 213.51 20.4901V35.6401H216.68V23.9101L227.88 35.1701C228.32 35.6101 228.81 35.8401 229.34 35.8401C229.82 35.8401 230.22 35.6601 230.52 35.3101C230.84 34.9601 230.98 34.4801 230.98 33.9001V18.6101V18.6401ZM215.19 18.7901C214.74 18.7901 214.37 18.9501 214.1 19.2701C214.37 18.9501 214.73 18.7901 215.19 18.7901H215.35C215.35 18.7901 215.38 18.8101 215.4 18.8101C215.33 18.8001 215.26 18.7901 215.19 18.7901ZM215.8 18.9201L215.95 19.0001C215.95 19.0001 215.98 19.0301 216 19.0401C215.93 19.0001 215.87 18.9501 215.8 18.9201ZM228.03 35.0401C228.13 35.1401 228.22 35.2201 228.32 35.2901C228.22 35.2201 228.12 35.1301 228.03 35.0401ZM229.34 35.6501H229.17C229.17 35.6501 229.1 35.6301 229.07 35.6201C229.16 35.6401 229.25 35.6501 229.34 35.6501C229.55 35.6501 229.74 35.6101 229.91 35.5401C229.74 35.6201 229.55 35.6501 229.34 35.6501ZM230.76 34.1201C230.76 34.2501 230.72 34.3501 230.69 34.4601C230.73 34.2901 230.77 34.1201 230.77 33.9201V34.1201H230.76Z" fill="#626262"/>
<path d="M210.77 24.09L210.63 23.71C210.23 22.69 209.66 21.81 208.93 21.08C208.2 20.35 207.32 19.78 206.3 19.38C205.29 18.98 204.18 18.78 202.96 18.78H198.95C197.78 18.78 196.69 18.98 195.68 19.38L195.31 19.53C194.59 19.85 193.94 20.27 193.35 20.79L193.06 21.06C192.42 21.69 191.9 22.43 191.5 23.29L191.34 23.67C190.94 24.7 190.74 25.83 190.74 27.06C190.74 28.29 190.94 29.41 191.34 30.46C191.76 31.51 192.33 32.43 193.06 33.2C193.8 33.96 194.67 34.57 195.66 35.01C196.67 35.45 197.76 35.66 198.94 35.66H202.95C204.15 35.66 205.26 35.44 206.27 35.01C207.27 34.56 208.14 33.96 208.87 33.2L209.14 32.9C209.75 32.19 210.24 31.38 210.59 30.46C211.01 29.41 211.22 28.27 211.22 27.05C211.22 25.99 211.07 25 210.76 24.09H210.77ZM190.97 27.49V27.05C190.96 27.24 190.97 27.42 190.98 27.61C190.98 27.57 190.97 27.54 190.97 27.5V27.49ZM191.38 24.24C191.38 24.24 191.4 24.16 191.41 24.12L191.55 23.75C191.49 23.91 191.44 24.08 191.39 24.24H191.38ZM193.22 21.21C193.11 21.32 193 21.44 192.9 21.56C192.92 21.53 192.94 21.5 192.96 21.48L193.22 21.21ZM208.77 21.23L209.03 21.5C209.03 21.5 209.08 21.57 209.1 21.6C208.99 21.48 208.89 21.35 208.77 21.23C208.77 21.23 208.76 21.23 208.75 21.22C208.75 21.22 208.76 21.22 208.77 21.23ZM207.75 25.06C207.88 25.38 207.97 25.72 208.04 26.08C207.98 25.73 207.88 25.39 207.75 25.06C207.71 24.97 207.66 24.89 207.62 24.81C207.66 24.9 207.71 24.97 207.75 25.06ZM206.58 19.73C206.58 19.73 206.64 19.77 206.68 19.78C206.53 19.71 206.39 19.64 206.23 19.58L206.58 19.73ZM207 23.77C206.89 23.63 206.79 23.48 206.67 23.36C206.59 23.27 206.48 23.21 206.39 23.13C206.48 23.21 206.58 23.27 206.67 23.36C206.79 23.49 206.89 23.64 207 23.77ZM203.4 19C203.4 19 203.48 19.01 203.52 19.02C203.33 19.01 203.15 19 202.95 19H203.39H203.4ZM198.52 19H198.94C198.75 19 198.58 19 198.39 19.01C198.43 19.01 198.47 19 198.51 19H198.52ZM195.4 19.73L195.74 19.59C195.59 19.65 195.45 19.72 195.3 19.79C195.33 19.77 195.36 19.75 195.4 19.74V19.73ZM195.28 23.36C195.28 23.36 195.28 23.36 195.29 23.36C195.29 23.36 195.29 23.36 195.28 23.36ZM194.26 24.95C194.26 24.95 194.23 25 194.22 25.03C194.23 25 194.25 24.98 194.26 24.95ZM194.22 29.33C194.22 29.33 194.21 29.28 194.2 29.26C194.2 29.28 194.21 29.31 194.22 29.33ZM198.52 35.43C198.44 35.43 198.36 35.41 198.28 35.41C198.5 35.43 198.72 35.44 198.94 35.44H198.52V35.43ZM203.39 35.43H202.95C203.15 35.43 203.34 35.43 203.53 35.41C203.48 35.41 203.44 35.42 203.39 35.43ZM206.19 34.81L205.82 34.96C205.82 34.96 205.73 34.98 205.69 35C205.86 34.94 206.03 34.89 206.19 34.81C206.65 34.6 207.08 34.36 207.48 34.08C207.08 34.35 206.65 34.6 206.19 34.81ZM206.67 30.73L206.51 30.91C206.13 31.3 205.69 31.62 205.17 31.87L204.95 31.97C204.35 32.23 203.68 32.36 202.95 32.36H198.94C198.32 32.36 197.74 32.26 197.2 32.06L196.97 31.97C196.38 31.71 195.86 31.36 195.43 30.91C195.05 30.51 194.75 30.04 194.51 29.5L194.41 29.26C194.16 28.62 194.04 27.93 194.04 27.19C194.04 26.45 194.16 25.74 194.41 25.12L194.51 24.89C194.75 24.36 195.05 23.91 195.43 23.52L195.6 23.36C196 22.99 196.45 22.7 196.97 22.49C197.57 22.23 198.23 22.1 198.94 22.1H202.95C203.68 22.1 204.34 22.23 204.95 22.49C205.56 22.74 206.07 23.08 206.51 23.53L206.67 23.7C207.04 24.11 207.33 24.59 207.55 25.15C207.79 25.77 207.92 26.45 207.92 27.2C207.92 27.95 207.8 28.64 207.55 29.27C207.33 29.83 207.04 30.32 206.67 30.74V30.73ZM208.73 33.04L208.46 33.31C208.46 33.31 208.36 33.39 208.31 33.43C208.46 33.31 208.6 33.18 208.73 33.04C209.05 32.7 209.34 32.33 209.6 31.94C209.34 32.33 209.06 32.7 208.73 33.04ZM210.4 30.37C210.4 30.37 210.37 30.43 210.36 30.47C210.37 30.44 210.39 30.41 210.4 30.37C210.5 30.13 210.58 29.88 210.65 29.63C210.58 29.88 210.49 30.13 210.4 30.37ZM211 27.49C211 27.57 210.99 27.65 210.98 27.73C211 27.51 211.01 27.28 211.01 27.05V27.49H211Z" fill="#626262"/>
<path d="M239.352 35.862V31.798H256.792C257.88 31.798 258.712 31.5207 259.288 30.966C259.885 30.4114 260.184 29.6754 260.184 28.758C260.184 27.7554 259.885 27.0087 259.288 26.518C258.712 26.006 257.88 25.75 256.792 25.75H246.104C245.016 25.75 244.024 25.59 243.128 25.27C242.253 24.9287 241.507 24.47 240.888 23.894C240.291 23.2967 239.821 22.5927 239.48 21.782C239.16 20.9714 239 20.086 239 19.126C239 18.1874 239.149 17.3234 239.448 16.534C239.768 15.7234 240.227 15.03 240.824 14.454C241.443 13.878 242.2 13.43 243.096 13.11C243.992 12.7687 245.016 12.598 246.168 12.598H262.872V16.662H246.168C245.229 16.662 244.504 16.918 243.992 17.43C243.48 17.9207 243.224 18.614 243.224 19.51C243.224 20.406 243.48 21.0994 243.992 21.59C244.525 22.0807 245.24 22.326 246.136 22.326H256.792C259.16 22.326 260.952 22.8807 262.168 23.99C263.405 25.0994 264.024 26.7847 264.024 29.046C264.024 30.0274 263.875 30.934 263.576 31.766C263.277 32.598 262.829 33.3234 262.232 33.942C261.635 34.5394 260.877 35.0087 259.96 35.35C259.064 35.6914 258.008 35.862 256.792 35.862H239.352Z" fill="#626262"/>
<path d="M285.716 35.862L272.692 25.622C272.33 25.3447 272.095 25.078 271.988 24.822C271.903 24.5447 271.86 24.246 271.86 23.926C271.86 23.5634 271.924 23.2434 272.052 22.966C272.18 22.6887 272.458 22.39 272.884 22.07L285.204 12.598H291.444L276.212 23.958L291.924 35.862H285.716ZM266.548 35.862V12.598H270.612V35.862H266.548Z" fill="#626262"/>
<path d="M293.812 35.862V12.598H297.876V35.862H293.812Z" fill="#626262"/>
</svg>
