<svg width="33" height="32" viewBox="0 0 33 32" fill="none" xmlns="http://www.w3.org/2000/svg">
<path d="M8.74986 30.2857H27.5681V23.4286H8.74986C8.29961 23.4286 7.85378 23.5173 7.4378 23.6896C7.02183 23.8619 6.64387 24.1144 6.32549 24.4328C6.00712 24.7512 5.75458 25.1291 5.58227 25.5451C5.40997 25.9611 5.32129 26.4069 5.32129 26.8571C5.32129 27.3074 5.40997 27.7532 5.58227 28.1692C5.75458 28.5852 6.00712 28.9631 6.32549 29.2815C6.64387 29.5999 7.02183 29.8524 7.4378 30.0247C7.85378 30.197 8.29961 30.2857 8.74986 30.2857Z" fill="#434159"/>
<path d="M8.74986 30.2857H27.5681V23.4286H8.74986C8.29961 23.4286 7.85378 23.5173 7.4378 23.6896C7.02183 23.8619 6.64387 24.1144 6.32549 24.4328C6.00712 24.7512 5.75458 25.1291 5.58227 25.5451C5.40997 25.9611 5.32129 26.4069 5.32129 26.8571C5.32129 27.3074 5.40997 27.7532 5.58227 28.1692C5.75458 28.5852 6.00712 28.9631 6.32549 29.2815C6.64387 29.5999 7.02183 29.8524 7.4378 30.0247C7.85378 30.197 8.29961 30.2857 8.74986 30.2857Z" fill="white" fill-opacity="0.1"/>
<path fill-rule="evenodd" clip-rule="evenodd" d="M3.60693 5.14286V26.5714C3.60693 28.0112 4.17887 29.392 5.19693 30.41C6.21498 31.4281 7.59576 32 9.03551 32H28.1784C28.633 32 29.0691 31.8194 29.3905 31.4979C29.712 31.1764 29.8926 30.7404 29.8926 30.2857C29.8926 29.8311 29.712 29.395 29.3905 29.0735C29.0691 28.752 28.633 28.5714 28.1784 28.5714H9.03551C8.50507 28.5714 7.99636 28.3607 7.62129 27.9856C7.24622 27.6106 7.03551 27.1019 7.03551 26.5714C7.03551 26.041 7.24622 25.5323 7.62129 25.1572C7.99636 24.7821 8.50507 24.5714 9.03551 24.5714H28.1784C28.633 24.5714 29.0691 24.3908 29.3905 24.0693C29.712 23.7478 29.8926 23.3118 29.8926 22.8571V5.14286C29.8926 3.77889 29.3508 2.47078 28.3863 1.50631C27.4219 0.541835 26.1138 0 24.7498 0L8.74979 0C7.38582 0 6.07771 0.541835 5.11324 1.50631C4.14877 2.47078 3.60693 3.77889 3.60693 5.14286Z" fill="#54B9D1"/>
<path fill-rule="evenodd" clip-rule="evenodd" d="M3.60693 5.14286V26.5714C3.60693 28.0112 4.17887 29.392 5.19693 30.41C6.21498 31.4281 7.59576 32 9.03551 32H28.1784C28.633 32 29.0691 31.8194 29.3905 31.4979C29.712 31.1764 29.8926 30.7404 29.8926 30.2857C29.8926 29.8311 29.712 29.395 29.3905 29.0735C29.0691 28.752 28.633 28.5714 28.1784 28.5714H9.03551C8.50507 28.5714 7.99636 28.3607 7.62129 27.9856C7.24622 27.6106 7.03551 27.1019 7.03551 26.5714C7.03551 26.041 7.24622 25.5323 7.62129 25.1572C7.99636 24.7821 8.50507 24.5714 9.03551 24.5714H28.1784C28.633 24.5714 29.0691 24.3908 29.3905 24.0693C29.712 23.7478 29.8926 23.3118 29.8926 22.8571V5.14286C29.8926 3.77889 29.3508 2.47078 28.3863 1.50631C27.4219 0.541835 26.1138 0 24.7498 0L8.74979 0C7.38582 0 6.07771 0.541835 5.11324 1.50631C4.14877 2.47078 3.60693 3.77889 3.60693 5.14286Z" fill="white" fill-opacity="0.4"/>
<path fill-rule="evenodd" clip-rule="evenodd" d="M17.1383 6.46629C16.8484 6.40887 16.5494 6.41642 16.2627 6.48837C15.9761 6.56033 15.709 6.69491 15.4806 6.88244C15.2522 7.06997 15.0682 7.30579 14.9418 7.57294C14.8154 7.84008 14.7498 8.13191 14.7497 8.42743C14.7497 8.80631 14.5992 9.16968 14.3313 9.43759C14.0634 9.70549 13.7 9.856 13.3211 9.856C12.9423 9.856 12.5789 9.70549 12.311 9.43759C12.0431 9.16968 11.8926 8.80631 11.8926 8.42743C11.8926 7.52844 12.1421 6.64709 12.6133 5.88149C13.0845 5.1159 13.7589 4.49609 14.5615 4.09109C15.3641 3.68609 16.2634 3.51177 17.1592 3.58756C18.055 3.66334 18.9121 3.98624 19.6353 4.52032C20.3584 5.0544 20.9192 5.77869 21.2551 6.61257C21.591 7.44645 21.6889 8.35719 21.5378 9.2434C21.3868 10.1296 20.9928 10.9565 20.3996 11.6321C19.8065 12.3076 19.0375 12.8053 18.1783 13.0697C18.1736 13.2573 18.1321 13.4422 18.056 13.6137C17.9799 13.7853 17.8708 13.9401 17.7348 14.0695C17.5989 14.1989 17.4388 14.3002 17.2637 14.3677C17.0886 14.4352 16.9019 14.4675 16.7143 14.4629C16.5267 14.4582 16.3418 14.4167 16.1703 14.3406C15.9988 14.2645 15.8439 14.1553 15.7145 14.0194C15.5852 13.8834 15.4838 13.7234 15.4163 13.5483C15.3488 13.3731 15.3165 13.1865 15.3211 12.9989V11.856C15.3211 11.0674 15.9611 10.4274 16.7497 10.4274C17.2457 10.4265 17.7237 10.2413 18.0908 9.90782C18.4579 9.57432 18.688 9.11631 18.7364 8.62269C18.7849 8.12908 18.6481 7.63508 18.3528 7.2366C18.0575 6.83811 17.6246 6.56358 17.1383 6.46629ZM14.7497 18.3063C14.7497 18.8367 14.9604 19.3454 15.3355 19.7205C15.7106 20.0956 16.2193 20.3063 16.7497 20.3063C17.2802 20.3063 17.7889 20.0956 18.1639 19.7205C18.539 19.3454 18.7497 18.8367 18.7497 18.3063C18.7497 17.7759 18.539 17.2672 18.1639 16.8921C17.7889 16.517 17.2802 16.3063 16.7497 16.3063C16.2193 16.3063 15.7106 16.517 15.3355 16.8921C14.9604 17.2672 14.7497 17.7759 14.7497 18.3063Z" fill="#009F95"/>
<path fill-rule="evenodd" clip-rule="evenodd" d="M17.1383 6.46629C16.8484 6.40887 16.5494 6.41642 16.2627 6.48837C15.9761 6.56033 15.709 6.69491 15.4806 6.88244C15.2522 7.06997 15.0682 7.30579 14.9418 7.57294C14.8154 7.84008 14.7498 8.13191 14.7497 8.42743C14.7497 8.80631 14.5992 9.16968 14.3313 9.43759C14.0634 9.70549 13.7 9.856 13.3211 9.856C12.9423 9.856 12.5789 9.70549 12.311 9.43759C12.0431 9.16968 11.8926 8.80631 11.8926 8.42743C11.8926 7.52844 12.1421 6.64709 12.6133 5.88149C13.0845 5.1159 13.7589 4.49609 14.5615 4.09109C15.3641 3.68609 16.2634 3.51177 17.1592 3.58756C18.055 3.66334 18.9121 3.98624 19.6353 4.52032C20.3584 5.0544 20.9192 5.77869 21.2551 6.61257C21.591 7.44645 21.6889 8.35719 21.5378 9.2434C21.3868 10.1296 20.9928 10.9565 20.3996 11.6321C19.8065 12.3076 19.0375 12.8053 18.1783 13.0697C18.1736 13.2573 18.1321 13.4422 18.056 13.6137C17.9799 13.7853 17.8708 13.9401 17.7348 14.0695C17.5989 14.1989 17.4388 14.3002 17.2637 14.3677C17.0886 14.4352 16.9019 14.4675 16.7143 14.4629C16.5267 14.4582 16.3418 14.4167 16.1703 14.3406C15.9988 14.2645 15.8439 14.1553 15.7145 14.0194C15.5852 13.8834 15.4838 13.7234 15.4163 13.5483C15.3488 13.3731 15.3165 13.1865 15.3211 12.9989V11.856C15.3211 11.0674 15.9611 10.4274 16.7497 10.4274C17.2457 10.4265 17.7237 10.2413 18.0908 9.90782C18.4579 9.57432 18.688 9.11631 18.7364 8.62269C18.7849 8.12908 18.6481 7.63508 18.3528 7.2366C18.0575 6.83811 17.6246 6.56358 17.1383 6.46629ZM14.7497 18.3063C14.7497 18.8367 14.9604 19.3454 15.3355 19.7205C15.7106 20.0956 16.2193 20.3063 16.7497 20.3063C17.2802 20.3063 17.7889 20.0956 18.1639 19.7205C18.539 19.3454 18.7497 18.8367 18.7497 18.3063C18.7497 17.7759 18.539 17.2672 18.1639 16.8921C17.7889 16.517 17.2802 16.3063 16.7497 16.3063C16.2193 16.3063 15.7106 16.517 15.3355 16.8921C14.9604 17.2672 14.7497 17.7759 14.7497 18.3063Z" fill="white" fill-opacity="0.1"/>
</svg>
