<svg width="184" height="122" viewBox="0 0 184 122" fill="none" xmlns="http://www.w3.org/2000/svg">
<path d="M22.3998 46.9523C31.9725 31.6298 45.9288 31.4474 50.7191 32.575C50.7191 27.0782 53.6778 21.1574 58.7499 14.8145C63.822 8.47159 73.5436 2.97525 82.8424 1.28381C92.1413 -0.407636 103.554 0.860947 108.626 2.97525C114.966 5.61813 121.729 9.74103 128.491 17.7754C135.254 25.8097 137.227 37.6498 138.213 43.5699C139.34 43.147 142.693 42.555 147.089 43.5699C152.584 44.8385 158.079 52.0271 160.615 56.6786C163.151 61.3301 162.728 67.2501 162.305 71.4787C161.883 75.7073 160.192 82.0502 153.852 87.9703C148.78 92.7063 139.34 94.1723 135.254 94.3132C112.007 94.4542 62.554 94.6515 50.7191 94.3132C35.9255 93.8904 29.1627 87.1246 25.3586 83.7417C21.5545 80.3588 11.8329 63.8664 22.3998 46.9523Z" fill="#E3E3E3"/>
<path d="M114.14 88.251C117.177 83.3608 121.604 83.3026 123.124 83.6625C123.124 81.9082 124.062 80.0186 125.672 77.9942C127.281 75.9699 130.365 74.2158 133.315 73.6759C136.265 73.1361 139.885 73.541 141.494 74.2158C143.506 75.0592 145.651 76.375 147.796 78.9392C149.942 81.5034 150.568 85.2821 150.88 87.1715C151.238 87.0365 152.302 86.8476 153.696 87.1715C155.44 87.5764 157.183 89.8706 157.987 91.3551C158.792 92.8396 158.658 94.729 158.524 96.0786C158.39 97.4281 157.853 99.4525 155.842 101.342C154.233 102.853 151.238 103.321 149.942 103.366C142.567 103.411 126.878 103.474 123.124 103.366C118.431 103.231 116.285 101.072 115.078 99.9923C113.872 98.9126 110.788 93.6491 114.14 88.251Z" fill="#F7F6F3"/>
<ellipse cx="146.125" cy="23.4258" rx="4.5" ry="5" fill="#D9D9D9"/>
<circle cx="152.625" cy="16.4258" r="2" fill="#D9D9D9"/>
<path d="M86.625 69.4247C86.625 72.8118 89.2917 75.5 92.5983 75.5C95.9583 75.5 98.625 72.8118 98.625 69.4247C98.625 66.0914 95.9583 63.3495 92.5983 63.3495C89.2917 63.3495 86.625 66.0914 86.625 69.4247ZM86.785 41.8441C86.785 45.7151 87.6917 51.629 89.185 58.5645C89.6117 60.5 90.3583 61.3602 92.5983 61.3602C94.8917 61.3602 95.6383 60.5 96.065 58.5645C97.5583 51.629 98.465 45.7151 98.465 41.8441C98.465 37.9194 96.8117 35.5 92.5983 35.5C88.4383 35.5 86.785 37.9194 86.785 41.8441Z" fill="#666666"/>
<circle cx="30.625" cy="91.4258" r="6" fill="#999999"/>
<path d="M133.406 45.4863C145.323 44.4671 158.232 33.7374 163.197 28.5C170.006 35.2945 179.653 39.258 183.625 40.3904C173.411 52.9603 160.076 57.8014 154.685 58.6507C147.876 58.6507 137.662 49.8744 133.406 45.4863Z" fill="#D1D1D3"/>
<path d="M47.8645 121.5C51.6096 106.552 48.2901 92.9064 46.1622 87.9521C57.0571 87.9521 65.739 81.1575 68.718 77.7603C74.6762 90.9247 69.9948 107.486 68.718 109.61C67.6966 111.308 54.3901 118.244 47.8645 121.5Z" fill="#D1D1D3"/>
<path d="M21.0529 33.5959C11.5199 36.3137 3.46221 34.7283 0.625 33.5959C5.39151 33.5959 7.71802 31.3311 8.28547 30.1986C11.3497 32.9164 18.0738 33.5959 21.0529 33.5959Z" fill="#D1D1D3"/>
</svg>
