<svg width="33" height="32" viewBox="0 0 33 32" fill="none" xmlns="http://www.w3.org/2000/svg">
<g clip-path="url(#clip0_72_768)">
<path d="M13.563 0.128968C13.2639 0.0149384 12.9414 -0.0242937 12.6236 0.0146825L3.91503 1.35868C3.44954 1.39929 3.01322 1.60252 2.68261 1.93271C2.352 2.2629 2.14822 2.69896 2.10703 3.1644L0.76531 11.873C0.727745 12.1746 0.76062 12.4808 0.861357 12.7675C0.962091 13.0542 1.12794 13.3137 1.34588 13.5255L18.9825 31.1644C19.5182 31.6997 20.2445 32.0004 21.0019 32.0004C21.7592 32.0004 22.4856 31.6997 23.0213 31.1644L31.9127 22.273C32.4473 21.7373 32.7476 21.0115 32.7476 20.2547C32.7476 19.4979 32.4473 18.7721 31.9127 18.2364L14.2785 0.595254C14.0761 0.390936 13.8332 0.231312 13.5653 0.126683L13.563 0.128968Z" fill="#4994EC"/>
<path d="M13.563 0.128968C13.2639 0.0149384 12.9414 -0.0242937 12.6236 0.0146825L3.91503 1.35868C3.44954 1.39929 3.01322 1.60252 2.68261 1.93271C2.352 2.2629 2.14822 2.69896 2.10703 3.1644L0.76531 11.873C0.727745 12.1746 0.76062 12.4808 0.861357 12.7675C0.962091 13.0542 1.12794 13.3137 1.34588 13.5255L18.9825 31.1644C19.5182 31.6997 20.2445 32.0004 21.0019 32.0004C21.7592 32.0004 22.4856 31.6997 23.0213 31.1644L31.9127 22.273C32.4473 21.7373 32.7476 21.0115 32.7476 20.2547C32.7476 19.4979 32.4473 18.7721 31.9127 18.2364L14.2785 0.595254C14.0761 0.390936 13.8332 0.231312 13.5653 0.126683L13.563 0.128968Z" fill="white" fill-opacity="0.3"/>
<path d="M7.60826 9.14512C7.60826 9.75133 7.84907 10.3327 8.27773 10.7614C8.70638 11.19 9.28776 11.4308 9.89397 11.4308C10.5002 11.4308 11.0816 11.19 11.5102 10.7614C11.9389 10.3327 12.1797 9.75133 12.1797 9.14512C12.1797 8.53891 11.9389 7.95753 11.5102 7.52888C11.0816 7.10022 10.5002 6.85941 9.89397 6.85941C9.28776 6.85941 8.70638 7.10022 8.27773 7.52888C7.84907 7.95753 7.60826 8.53891 7.60826 9.14512Z" fill="#613CB0"/>
</g>
<defs>
<clipPath id="clip0_72_768">
<rect width="32" height="32" fill="white" transform="translate(0.75)"/>
</clipPath>
</defs>
</svg>
